<?xml version="1.0" encoding="UTF-8"?>
<svg xmlns="http://www.w3.org/2000/svg" xmlns:xlink="http://www.w3.org/1999/xlink" viewBox="0 0 186.72 87.3">
  <defs>
    <style>
      .cls-1, .cls-2, .cls-3, .cls-4, .cls-5, .cls-6, .cls-7, .cls-8, .cls-9, .cls-10, .cls-11, .cls-12, .cls-13, .cls-14, .cls-15, .cls-16, .cls-17, .cls-18, .cls-19, .cls-20, .cls-21, .cls-22, .cls-23, .cls-24, .cls-25, .cls-26, .cls-27, .cls-28, .cls-29, .cls-30, .cls-31 {
        stroke-width: 0px;
      }

      .cls-1, .cls-8, .cls-10, .cls-15, .cls-21 {
        mix-blend-mode: screen;
      }

      .cls-1, .cls-9 {
        fill: #ffd52a;
      }

      .cls-2, .cls-15 {
        fill: #8d9092;
      }

      .cls-3 {
        fill: #dc902b;
      }

      .cls-4 {
        fill: url(#linear-gradient);
      }

      .cls-5 {
        fill: #2a2c2d;
      }

      .cls-6 {
        fill: #6b0405;
      }

      .cls-7 {
        mix-blend-mode: overlay;
        opacity: .7;
      }

      .cls-7, .cls-8, .cls-28 {
        fill: #fff;
      }

      .cls-8 {
        opacity: .4;
      }

      .cls-10, .cls-12, .cls-16 {
        fill: #008ed0;
      }

      .cls-11 {
        fill: #1e6a44;
      }

      .cls-32 {
        isolation: isolate;
      }

      .cls-12, .cls-20, .cls-22, .cls-33, .cls-27, .cls-34 {
        mix-blend-mode: multiply;
      }

      .cls-13 {
        fill: #3a3c3f;
      }

      .cls-14 {
        fill: #004265;
      }

      .cls-15, .cls-33 {
        opacity: .5;
      }

      .cls-17 {
        fill: #626467;
      }

      .cls-18 {
        fill: url(#linear-gradient-2);
      }

      .cls-19 {
        fill: #ff0026;
      }

      .cls-20 {
        fill: #b3b5b8;
        opacity: .9;
      }

      .cls-21, .cls-24 {
        fill: #8bc63f;
      }

      .cls-22 {
        fill: #9f0b10;
      }

      .cls-23 {
        fill: url(#linear-gradient-3);
      }

      .cls-25 {
        fill: #5c5d5e;
      }

      .cls-26 {
        fill: #231f20;
      }

      .cls-27 {
        fill: #dedfe0;
      }

      .cls-29 {
        fill: #00599e;
      }

      .cls-30 {
        fill: #d0d2d3;
      }

      .cls-31 {
        fill: #616264;
      }
    </style>
    <linearGradient id="linear-gradient" x1="3865.81" y1="-470.14" x2="3871.01" y2="-426.78" gradientTransform="translate(618.66 3891.6) rotate(-89.95)" gradientUnits="userSpaceOnUse">
      <stop offset=".46" stop-color="#e5e0df"/>
      <stop offset="1" stop-color="#8ca99c"/>
    </linearGradient>
    <linearGradient id="linear-gradient-2" x1="3840.22" y1="-470.14" x2="3845.42" y2="-426.79" xlink:href="#linear-gradient"/>
    <linearGradient id="linear-gradient-3" x1="3799.35" y1="-591.86" x2="3909.05" y2="-591.86" xlink:href="#linear-gradient"/>
  </defs>
  <g class="cls-32">
    <g id="Layer_1" data-name="Layer 1">
      <g>
        <g>
          <g>
            <g>
              <path class="cls-29" d="M107.92,45.77s14.15-7.59,15.24-33.25c.27-6.31,10.99-5.06,13.38,3.98,2.38,9.04,3.48,32.31,3.48,32.31l-32.1-3.04Z"/>
              <path class="cls-14" d="M140.02,49.32s-.03,0-.05,0l-32.1-3.04c-.22-.02-.4-.18-.44-.4-.04-.22.06-.44.25-.54.14-.08,13.91-7.79,14.98-32.83.12-2.68,2.03-4.41,4.89-4.41,3.62,0,8.04,2.85,9.47,8.28,2.27,8.62,3.39,30.32,3.49,32.28.02.05.03.11.03.16,0,.28-.22.5-.5.5,0,0-.01,0-.02,0ZM109.4,45.41l30.1,2.85c-.19-3.64-1.3-23.54-3.43-31.63-1.3-4.95-5.26-7.54-8.5-7.54-1.81,0-3.78.91-3.89,3.45-.57,13.38-4.74,21.8-8.13,26.52-2.42,3.36-4.77,5.35-6.14,6.35Z"/>
            </g>
            <path class="cls-12" d="M131.75,12.06c2.51,14.47-6.47,27.68-11.7,31.51-1.42,1.04-2.88,2.01-4.39,2.93l24.36,2.31s-1.1-23.28-3.48-32.31c-1.25-4.75-4.8-7.34-7.93-7.83,1.3.92,2.92,2.17,3.13,3.39Z"/>
            <path class="cls-10" d="M120.66,34.63c.23-.19.44-.42.66-.63,4.37-6.57,6.36-15.32,6.05-23-1.53.04-2.8,1.22-2.94,3.53-.52,9.22-2.39,15.82-4.41,20.41.21-.09.43-.19.64-.3Z"/>
          </g>
          <g>
            <g>
              <g>
                <g>
                  <path class="cls-17" d="M159.37,20.26v7.44s10.21,6.95,25.68,6.58c0,0,1.73-4.17,1.66-10.28.08-6.11-1.64-10.28-1.64-10.28-15.47-.39-25.7,6.53-25.7,6.53Z"/>
                  <g>
                    <path class="cls-4" d="M166.48,16.83c-4.53,1.69-7.11,3.43-7.11,3.43v7.44s2.63,1.79,7.26,3.51c.59-3.16.99-8.11-.15-14.38Z"/>
                    <path class="cls-13" d="M182.06,34.27c.42.02.85.02,1.28.03.52-1.7,1.28-4.96,1.28-9.49,0-3.12-.36-6.85-1.39-11.08-.42,0-.83.01-1.24.03,2.63,10.61.86,18.05.07,20.52Z"/>
                    <path class="cls-13" d="M178.11,33.96c.41.05.82.09,1.24.13.52-1.75,1.22-4.92,1.22-9.29,0-3.07-.34-6.72-1.33-10.87-.41.04-.82.08-1.22.13,2.43,10.05.89,17.21.09,19.91Z"/>
                    <path class="cls-13" d="M171.46,15.27c-.4.1-.8.21-1.18.32,1.62,7.78.87,13.66.14,16.85.39.11.79.22,1.2.32.44-1.85.87-4.54.88-7.97,0-2.73-.28-5.92-1.03-9.52Z"/>
                    <path class="cls-13" d="M174.24,33.35c.4.08.8.15,1.21.22.49-1.82,1.08-4.81,1.08-8.78,0-2.94-.31-6.42-1.21-10.35-.41.07-.81.15-1.2.22,2.07,9.06.92,15.68.12,18.68Z"/>
                    <path class="cls-13" d="M167.64,16.41c-.4.14-.79.28-1.16.42,1.14,6.28.74,11.22.15,14.38.38.14.78.28,1.18.42.34-1.76.63-4.06.63-6.85,0-2.43-.22-5.24-.8-8.37Z"/>
                  </g>
                  <path class="cls-20" d="M159.37,20.26v7.44s10.21,6.95,25.68,6.58c0,0,.12-.3.3-.85-3.59.2-7.25-.71-10.75-1.3-2.31-.39-7.81-1.48-7.56-4.91.27-3.8,16-2.98,19.67-3.09v-.12c.08-6.11-1.64-10.28-1.64-10.28-15.47-.39-25.7,6.53-25.7,6.53Z"/>
                  <path class="cls-20" d="M159.37,20.26v3.82c8.21-3.92,17.75-5.43,26.89-5.83-.49-2.81-1.19-4.52-1.19-4.52-15.47-.39-25.7,6.53-25.7,6.53Z"/>
                </g>
                <g>
                  <path class="cls-17" d="M159.35,45.85v7.44s10.21,6.94,25.68,6.58c0,0,1.73-4.17,1.66-10.28.08-6.11-1.64-10.28-1.64-10.28-15.47-.39-25.71,6.54-25.71,6.54Z"/>
                  <g>
                    <path class="cls-18" d="M166.45,42.42c-4.53,1.69-7.11,3.44-7.11,3.44v7.44s2.64,1.79,7.26,3.51c.59-3.16.98-8.1-.15-14.38Z"/>
                    <path class="cls-13" d="M182.04,59.85c.42.02.85.03,1.28.03.52-1.71,1.28-4.96,1.28-9.49,0-3.12-.36-6.85-1.39-11.08-.42,0-.83.01-1.24.03,2.63,10.61.85,18.05.07,20.52Z"/>
                    <path class="cls-13" d="M178.09,59.55c.41.05.83.09,1.24.13.52-1.75,1.22-4.92,1.22-9.29,0-3.07-.34-6.72-1.33-10.87-.41.04-.82.08-1.22.13,2.43,10.05.89,17.21.08,19.91Z"/>
                    <path class="cls-13" d="M171.44,40.86c-.4.1-.8.21-1.18.32,1.62,7.78.87,13.66.14,16.86.39.11.79.21,1.2.32.44-1.85.87-4.54.87-7.97,0-2.73-.28-5.93-1.03-9.52Z"/>
                    <path class="cls-13" d="M174.22,58.94c.4.08.8.15,1.21.22.49-1.82,1.08-4.81,1.08-8.78,0-2.94-.31-6.41-1.21-10.35-.41.07-.81.14-1.2.22,2.07,9.06.92,15.68.12,18.69Z"/>
                    <path class="cls-13" d="M167.62,42c-.4.14-.79.28-1.17.41,1.14,6.28.74,11.22.15,14.38.38.14.78.28,1.18.42.34-1.76.63-4.06.63-6.85,0-2.43-.22-5.24-.8-8.37Z"/>
                  </g>
                  <path class="cls-20" d="M159.35,45.85v7.44s10.21,6.94,25.68,6.58c0,0,.12-.3.3-.85-3.58.21-7.25-.71-10.75-1.31-2.31-.39-7.81-1.48-7.56-4.91.27-3.8,16-2.98,19.67-3.09v-.12c.08-6.11-1.64-10.28-1.64-10.28-15.47-.39-25.71,6.54-25.71,6.54Z"/>
                  <path class="cls-20" d="M159.35,45.85v3.82c8.21-3.92,17.75-5.43,26.89-5.83-.48-2.81-1.18-4.52-1.18-4.52-15.47-.39-25.71,6.54-25.71,6.54Z"/>
                </g>
              </g>
              <g>
                <g>
                  <path class="cls-19" d="M165.86,37.13c.37-13.54-1.87-21.75-1.87-21.75-5-3.08-13.11-5.63-22.47-7.66,1.1,9.34-2.62,19.86-9.97,25.49-7.16,5.48-17.58,6.91-26.34,6.68-8.83-.23-19.2-2.03-26-8.17-3.89-3.51-6.81-7.9-7.95-13.05-.64-2.88.12-5.77.54-8.62.34-2.25.85-5.43-.82-7.36-.13-.16-.28-.3-.44-.44-8.66.64-12.58,1.47-13.65,1.75C42.4,5.95,4.68,30.53,2.39,32.65c-1.8,1.67-1.92,3.55-1.89,4.32-.04.76.08,2.65,1.88,4.32,2.29,2.13,39.96,26.78,54.44,28.76,1.44.38,8.04,1.77,24.46,2.36,18.79.67,66.66-3.72,82.66-13.53,0,0,2.26-8.21,1.91-21.74Z"/>
                  <path class="cls-6" d="M85.36,72.97h0c-1.48,0-2.85-.02-4.09-.07-17.03-.61-23.45-2.08-24.57-2.37-14.64-2-52.69-27.05-54.65-28.88C.09,39.84-.03,37.76,0,36.95c-.04-.77.09-2.85,2.05-4.66,1.96-1.82,40.08-26.8,54.77-28.78.9-.24,4.73-1.09,13.68-1.75.14-.02.27.04.37.13.17.15.33.31.48.49,1.79,2.07,1.3,5.3.95,7.65l-.02.1c-.08.54-.17,1.08-.26,1.62-.38,2.25-.78,4.57-.28,6.82,1.04,4.7,3.74,9.12,7.8,12.79,5.58,5.03,14.21,7.74,25.68,8.04.58.02,1.16.02,1.75.02,7.14,0,17.15-1.14,24.28-6.6,6.98-5.35,10.91-15.41,9.78-25.03-.02-.16.04-.32.16-.43.12-.11.28-.15.44-.12,10.34,2.25,17.95,4.85,22.62,7.72.11.07.19.17.22.29.02.08,2.26,8.44,1.89,21.89.34,13.43-1.91,21.78-1.93,21.86-.03.12-.11.23-.22.29-15.58,9.54-59.75,13.67-78.85,13.67ZM70.36,2.77c-8.94.67-12.68,1.55-13.35,1.72C42.43,6.45,4.68,31.21,2.73,33.02c-1.65,1.53-1.76,3.26-1.73,3.93-.03.72.07,2.45,1.72,3.98,1.94,1.81,39.63,26.64,54.17,28.63,1.16.3,7.48,1.75,24.41,2.35,1.23.04,2.59.07,4.06.07,18.93,0,62.59-4.05,78.16-13.42.33-1.3,2.16-9.22,1.85-21.41.34-12.21-1.48-20.14-1.8-21.44-4.49-2.71-11.71-5.18-21.46-7.35.91,9.75-3.15,19.83-10.24,25.25-7.35,5.62-17.59,6.8-24.88,6.8-.6,0-1.19,0-1.78-.02-11.71-.31-20.57-3.1-26.32-8.3-4.21-3.81-7.02-8.41-8.11-13.32-.54-2.44-.13-4.86.27-7.2.09-.53.18-1.07.26-1.6v-.1c.34-2.17.79-5.13-.7-6.85-.08-.09-.16-.17-.24-.25Z"/>
                </g>
                <path class="cls-22" d="M150.32,43.77c-25.99,5.77-53.06,9.11-79.71,7.62-13.58-.76-27.1-2.52-40.38-5.46-6.38-1.41-12.8-2.85-18.98-5.03-3.41-1.2-6.86-2.25-10.19-3.68-.19-.08-.37-.16-.55-.25-.04.77.09,2.65,1.88,4.31,2.29,2.13,39.96,26.78,54.44,28.76,1.44.38,8.04,1.77,24.46,2.36,18.79.67,66.66-3.72,82.66-13.53,0,0,2.01-7.32,1.95-19.53-5.08,1.84-10.32,3.26-15.57,4.43Z"/>
                <g>
                  <path class="cls-16" d="M165.86,37.13c.37-13.54-1.87-21.75-1.87-21.75-4.04-2.49-10.12-4.63-17.24-6.44,2.3,7.81,3.11,16,3.1,24.18-.01,10.84-.26,21.89-3.66,32.27,7.35-1.82,13.62-3.99,17.76-6.53,0,0,2.26-8.21,1.91-21.74Z"/>
                  <path class="cls-14" d="M146.18,65.9c-.14,0-.27-.06-.37-.16-.12-.13-.17-.32-.11-.5,3.33-10.17,3.62-20.99,3.64-32.12,0-9.11-1-16.97-3.08-24.04-.05-.17,0-.36.12-.49.12-.13.31-.18.48-.14,7.71,1.95,13.55,4.14,17.38,6.49.11.07.19.17.22.29.02.08,2.26,8.44,1.89,21.89.34,13.43-1.91,21.78-1.93,21.86-.03.12-.11.23-.22.29-3.92,2.4-9.94,4.62-17.9,6.59-.04,0-.08.01-.12.01ZM147.47,9.65c1.95,6.94,2.89,14.64,2.88,23.48-.01,10.9-.29,21.52-3.41,31.57,7.31-1.86,12.89-3.93,16.58-6.15.33-1.3,2.16-9.23,1.85-21.41.34-12.21-1.48-20.14-1.8-21.44-3.6-2.18-9.01-4.21-16.09-6.05Z"/>
                </g>
                <path class="cls-12" d="M149.62,44.38c-.34,7.13-1.21,14.22-3.44,21.02,7.35-1.82,13.62-3.99,17.76-6.53,0,0,1.78-6.46,1.94-17.38-1.52.21-12.35,2.19-16.26,2.89Z"/>
                <g>
                  <path class="cls-23" d="M.5,36.97c-.04.76.08,2.65,1.88,4.32,2.23,2.07,37.99,25.49,53.24,28.55,2.88-9.71,4.53-20.9,4.54-32.81.01-11.92-1.62-23.11-4.48-32.83C40.44,7.24,4.62,30.58,2.39,32.65c-1.8,1.67-1.92,3.55-1.89,4.32Z"/>
                  <g>
                    <path class="cls-16" d="M.5,36.97c-.04.76.08,2.65,1.88,4.32,2.23,2.07,37.99,25.49,53.24,28.55,2.88-9.71,4.53-20.9,4.54-32.81.01-11.92-1.62-23.11-4.48-32.83C40.44,7.24,4.62,30.58,2.39,32.65c-1.8,1.67-1.92,3.55-1.89,4.32Z"/>
                    <path class="cls-14" d="M55.63,70.34s-.07,0-.1,0c-15.21-3.05-50.88-26.25-53.49-28.67C.09,39.84-.03,37.76,0,36.95c-.04-.77.09-2.85,2.05-4.66C4.67,29.86,40.38,6.74,55.59,3.71c.26-.05.5.1.58.35,2.96,10.04,4.51,21.43,4.5,32.97-.01,11.54-1.59,22.93-4.56,32.96-.06.21-.26.36-.48.36ZM55.34,4.79C40.03,8.14,5.3,30.64,2.73,33.02c-1.65,1.53-1.76,3.26-1.73,3.93-.03.72.07,2.45,1.72,3.98,2.56,2.38,37.25,24.96,52.55,28.33,2.86-9.82,4.38-20.96,4.39-32.23.01-11.27-1.48-22.41-4.33-32.24Z"/>
                  </g>
                  <path class="cls-12" d="M24.6,46.2c-4.2-1.02-8.38-2.19-12.43-3.72-3-1.13-6.23-2.25-8.84-4.15-.78-.56-1.8-1.35-2.78-2.26-.05.37-.06.68-.05.9-.04.76.08,2.65,1.88,4.32,2.23,2.07,37.99,25.49,53.24,28.55,1.58-5.32,2.79-11.09,3.56-17.18-11.6-1.79-23.18-3.68-34.58-6.46Z"/>
                </g>
                <g>
                  <path class="cls-28" d="M59.2,65.6c.8,0,1.45.65,1.45,1.45,0,.8-.65,1.45-1.45,1.45-.8,0-1.45-.65-1.45-1.45,0-.8.65-1.45,1.45-1.45Z"/>
                  <path class="cls-28" d="M63.53,35.53c.8,0,1.45.65,1.45,1.45,0,.8-.65,1.45-1.45,1.45-.8,0-1.45-.65-1.45-1.45,0-.8.65-1.45,1.45-1.45Z"/>
                  <path class="cls-28" d="M58.8,5.45c.8,0,1.45.65,1.45,1.45,0,.8-.65,1.45-1.45,1.45-.8,0-1.45-.65-1.45-1.45,0-.8.65-1.45,1.45-1.45Z"/>
                  <path class="cls-28" d="M62.61,20.49c.8,0,1.45.65,1.45,1.45,0,.8-.65,1.45-1.45,1.45-.8,0-1.45-.65-1.45-1.45,0-.8.65-1.45,1.45-1.45Z"/>
                  <path class="cls-28" d="M62.58,50.57c.8,0,1.45.65,1.45,1.45,0,.8-.65,1.45-1.45,1.45-.8,0-1.45-.65-1.45-1.45,0-.8.65-1.45,1.45-1.45Z"/>
                </g>
                <path class="cls-19" d="M60.73,55.38c-.07.65-.16,1.31-.27,1.96-.36,2.13-.93,4.21-1.35,6.33,7.8,1.45,15.72,2.08,23.82,1.98,26.08-.31,51.61-5.82,77.23-10.14.24-1.59.48-3.55.67-5.83-23.76,2.21-47.42,5.59-71.28,6.42-9.67.33-19.26.18-28.81-.71Z"/>
                <path class="cls-27" d="M140.15,20.61c8.42.66,16.82,1.52,25.16,2.54-.56-4.99-1.32-7.76-1.32-7.76-5-3.08-13.11-5.63-22.47-7.66.5,4.25,0,8.73-1.38,12.89Z"/>
                <path class="cls-27" d="M71.25,18.66c-.64-2.88.12-5.77.54-8.62.34-2.25.85-5.43-.82-7.36-.13-.16-.28-.3-.44-.44-8.66.64-12.58,1.47-13.65,1.75C42.4,5.95,4.68,30.53,2.39,32.65c-1.8,1.67-1.92,3.55-1.89,4.32,0,.05,0,.12,0,.18,6.49-2.66,13.11-4.99,19.84-6.96,16.82-4.93,34.04-7.98,51.44-9.59-.2-.63-.38-1.28-.53-1.94Z"/>
                <path class="cls-10" d="M54.41,57.65c.18-.91.32-1.83.43-2.75-3.34-.5-6.68-1.1-10.01-1.81-11.01-2.35-21.84-5.42-32.69-8.42,10.68,7.42,37,17.12,40.8,18.1.53-1.69,1.11-3.37,1.46-5.11Z"/>
              </g>
              <g>
                <path class="cls-24" d="M68.95,2.37s-.65-2.23,1.84-1.83c2.49.4,4,4.07,3.4,7.94-.6,3.87-1.15,12.52,4.06,19.73,5.93,8.2,29.32,13.7,44.94,8.05,15.63-5.65,17.57-23.08,16.14-27.39-1.43-4.31,4.75-3.71,4.59.91-.16,4.63,1.54,22.66-21.26,30.09-22.8,7.43-43.59-1.67-49.25-12.05-5.66-10.38-3.23-20.14-3.23-20.14,0,0,.42-3.78-1.23-5.32Z"/>
                <path class="cls-11" d="M105.85,43.09c-12.27,0-27.5-5.16-32.88-15.02-5.68-10.43-3.38-20.09-3.28-20.5h0s.35-3.49-1.09-4.83c-.07-.06-.11-.14-.14-.23-.03-.11-.31-1.13.24-1.86.27-.36.86-.81,2.16-.6,2.76.44,4.47,4.26,3.81,8.51-.54,3.43-1.22,12.18,3.97,19.36,4.12,5.69,17.26,10.15,29.93,10.15,5.32,0,10.31-.79,14.44-2.28,15.19-5.5,17.29-22.39,15.84-26.76-.47-1.41-.17-2.26.17-2.73.39-.54,1.04-.85,1.79-.85.87,0,1.79.41,2.45,1.1.56.58,1.21,1.61,1.15,3.25-.01.33-.01.73-.02,1.19-.03,6.11-.09,22.35-21.59,29.36-5.57,1.82-11.28,2.74-16.97,2.74ZM69.4,2.12c1.68,1.74,1.29,5.46,1.27,5.62-.04.16-2.31,9.77,3.18,19.84,5.19,9.52,20.03,14.5,32,14.5,5.58,0,11.19-.9,16.66-2.69,20.81-6.78,20.87-22.5,20.9-28.41,0-.47,0-.88.02-1.22.05-1.29-.45-2.08-.87-2.52-.48-.5-1.13-.8-1.73-.8-.25,0-.71.06-.98.43-.28.39-.29,1.04-.03,1.83,1.52,4.59-.62,22.29-16.45,28.02-4.23,1.53-9.34,2.34-14.78,2.34-13.17,0-26.38-4.54-30.74-10.57-5.41-7.48-4.7-16.55-4.15-20.1.57-3.64-.8-7.02-2.98-7.37-.62-.1-1.03-.02-1.2.21-.18.24-.15.65-.11.87Z"/>
              </g>
              <path class="cls-21" d="M73.16,17.95c.43,9.38,5.39,14.72,13.74,18.09,8.52,3.44,22.13,5.35,31.12,3.31,7.26-1.65,14.07-5.38,17.11-12.48-2.56,3.87-6.38,7.38-11.94,9.39-15.62,5.65-39.01.15-44.94-8.05-5.21-7.2-4.66-15.86-4.06-19.73.21-1.38.16-2.73-.12-3.92.14,4.46-1.12,8.9-.92,13.39Z"/>
            </g>
            <path class="cls-10" d="M3.57,33.74S31.9,12.49,53.01,6.22c0,0-33.95,16.61-49.44,27.52Z"/>
            <path class="cls-10" d="M147.88,10.69s12.53,4.21,15.11,5.79c2.58,1.59-10.92.18-15.11-5.79Z"/>
          </g>
        </g>
        <g>
          <g>
            <path class="cls-5" d="M82.59,66.83c0,11.03-8.94,19.97-19.97,19.97s-19.97-8.94-19.97-19.97,8.94-19.97,19.97-19.97,19.97,8.94,19.97,19.97Z"/>
            <path class="cls-26" d="M62.62,87.3c-11.29,0-20.47-9.18-20.47-20.47s9.18-20.47,20.47-20.47,20.47,9.18,20.47,20.47-9.18,20.47-20.47,20.47ZM62.62,47.37c-10.73,0-19.47,8.73-19.47,19.47s8.73,19.47,19.47,19.47,19.47-8.73,19.47-19.47-8.73-19.47-19.47-19.47Z"/>
          </g>
          <g>
            <path class="cls-2" d="M78.31,66.91c0,8.62-7,15.62-15.62,15.62s-15.62-6.99-15.62-15.62,6.99-15.62,15.62-15.62,15.62,6.99,15.62,15.62Z"/>
            <path class="cls-26" d="M62.69,83.03c-8.89,0-16.12-7.23-16.12-16.12s7.23-16.12,16.12-16.12,16.12,7.23,16.12,16.12-7.23,16.12-16.12,16.12ZM62.69,51.79c-8.34,0-15.12,6.78-15.12,15.12s6.78,15.12,15.12,15.12,15.12-6.78,15.12-15.12-6.78-15.12-15.12-15.12Z"/>
          </g>
          <path class="cls-15" d="M65.56,70.8c-5.09,1.61-12.05,2.33-17.82.63,1.94,6.42,7.9,11.1,14.95,11.1,8.62,0,15.62-6.99,15.62-15.62,0-.89-.08-1.77-.22-2.62-3.84,2.67-8.05,5.1-12.53,6.51Z"/>
          <g class="cls-33">
            <path class="cls-31" d="M63.12,46.88c.34.07.69.13,1.05.2,22.99,4.2,19.38,32.49,4.05,36.4-13.02,3.31-21.3-5.16-23.5-7.8,3.26,6.59,10.05,11.12,17.9,11.12,11.03,0,19.97-8.94,19.97-19.97s-8.67-19.69-19.47-19.96Z"/>
          </g>
          <g>
            <path class="cls-28" d="M75.02,66.65c0,6.87-5.55,12.44-12.4,12.44s-12.4-5.57-12.4-12.44,5.55-12.44,12.4-12.44,12.4,5.57,12.4,12.44Z"/>
            <path class="cls-26" d="M62.62,79.59c-7.12,0-12.9-5.8-12.9-12.94s5.79-12.94,12.9-12.94,12.9,5.8,12.9,12.94-5.79,12.94-12.9,12.94ZM62.62,54.71c-6.56,0-11.9,5.36-11.9,11.94s5.34,11.94,11.9,11.94,11.9-5.36,11.9-11.94-5.34-11.94-11.9-11.94Z"/>
          </g>
          <path class="cls-30" d="M74.36,66.83c0,6.48-5.26,11.74-11.74,11.74s-11.74-5.25-11.74-11.74,5.26-11.74,11.74-11.74,11.74,5.25,11.74,11.74Z"/>
          <g>
            <path class="cls-25" d="M62.6,57.2c-5.38,0-9.75,4.37-9.75,9.75s4.37,9.75,9.75,9.75,9.75-4.37,9.75-9.75-4.37-9.75-9.75-9.75ZM55.87,60.75l3.37,3.37c-.47.58-.85,1.38-.95,2.5h-4.84s.1-3.3,2.42-5.87ZM53.45,67.23h4.84c.11,1.12.48,1.92.95,2.5l-3.37,3.36c-2.33-2.56-2.42-5.87-2.42-5.87ZM62.11,75.98c-2.65-.25-4.49-1.21-5.76-2.4v-.02s3.18-3.52,3.18-3.52c1.12,1.1,2.59,1.19,2.59,1.19v4.75ZM62.11,62.62s-1.46.08-2.59,1.19l-3.17-3.52v-.02c1.27-1.19,3.11-2.15,5.76-2.4v4.75ZM71.69,66.61h-4.84c-.11-1.12-.48-1.92-.95-2.5l3.37-3.37c2.33,2.56,2.42,5.87,2.42,5.87ZM63.04,57.87c2.65.25,4.49,1.21,5.76,2.4v.02s-3.18,3.52-3.18,3.52c-1.12-1.1-2.59-1.19-2.59-1.19v-4.75ZM63.04,75.98v-4.75s1.46-.08,2.59-1.19l3.17,3.52v.02c-1.27,1.19-3.11,2.15-5.76,2.4ZM69.27,73.1l-3.37-3.36c.47-.58.85-1.38.95-2.5h4.84s-.1,3.3-2.42,5.87Z"/>
            <path class="cls-26" d="M62.6,77.21c-5.65,0-10.25-4.6-10.25-10.25s4.6-10.25,10.25-10.25,10.25,4.6,10.25,10.25-4.6,10.25-10.25,10.25ZM57.05,73.53c1.22,1,2.75,1.63,4.56,1.89v-3.76c-.49-.1-1.29-.34-2.04-.92l-2.51,2.79ZM63.54,71.66v3.76c1.81-.25,3.34-.89,4.56-1.89l-2.51-2.79c-.75.58-1.55.82-2.04.92ZM54,67.73c.12.92.54,2.9,1.9,4.63l2.68-2.68c-.37-.56-.61-1.21-.74-1.95h-3.85ZM66.56,69.68l2.68,2.68c1.37-1.72,1.78-3.71,1.9-4.63h-3.85c-.12.74-.37,1.39-.74,1.95ZM59.72,69.58c.06.02.11.06.15.1.97.95,2.25,1.04,2.27,1.04.2.01.37.14.44.32.07-.18.24-.3.44-.32.01,0,1.3-.09,2.27-1.04.04-.04.1-.08.15-.1.02-.06.05-.11.09-.16.47-.59.76-1.34.84-2.23,0-.1.05-.19.11-.26-.06-.07-.1-.16-.11-.26-.08-.9-.37-1.65-.84-2.23-.04-.05-.07-.11-.09-.16-.06-.02-.11-.06-.15-.1-.98-.96-2.25-1.04-2.26-1.04-.2-.01-.37-.14-.44-.32-.07.18-.24.3-.44.32-.01,0-1.3.09-2.27,1.04-.04.04-.1.08-.15.1-.02.06-.05.12-.09.17-.47.58-.76,1.33-.84,2.23,0,.1-.05.19-.11.26.06.07.1.16.11.26.08.9.37,1.65.84,2.23.04.05.07.11.09.16ZM67.29,66.11h3.85c-.12-.92-.54-2.9-1.9-4.63l-2.68,2.68c.37.56.61,1.21.74,1.95ZM54,66.11h3.85c.12-.74.37-1.39.74-1.95l-2.68-2.68c-1.38,1.73-1.79,3.71-1.9,4.63ZM57.04,60.31l2.52,2.79c.75-.58,1.55-.82,2.04-.92v-3.76c-1.81.25-3.34.89-4.56,1.89ZM63.54,62.19c.49.1,1.29.34,2.04.92l2.52-2.79c-1.22-1-2.75-1.63-4.56-1.89v3.76Z"/>
          </g>
          <path class="cls-7" d="M63.86,47.85c-1.48-.07-2.97.04-4.38.33-1.18.24-2.34.58-3.46,1.01-3.42,1.3-6.39,3.33-8.68,6.21-1.53,1.92-2.77,4.37-3.25,6.79,0,0-1.62,8.2,2.16,14.15,0,0,.54.88.69-.15.15-1.03-6.24-16.85,7.91-24.17,14.15-7.32,23.04,5.16,23.68,10.41,0,0,.15,1.33.64.74.21-.25-.1-1.36-.15-1.62-.24-1.26-.63-2.49-1.18-3.65-1.54-3.24-3.99-6.46-7.18-8.2-2.09-1.14-4.41-1.73-6.78-1.84Z"/>
          <g>
            <path class="cls-5" d="M66.05,66.87c0,2.03-1.64,3.67-3.67,3.67s-3.67-1.64-3.67-3.67,1.64-3.67,3.67-3.67,3.67,1.64,3.67,3.67Z"/>
            <path class="cls-26" d="M62.37,71.04c-2.3,0-4.17-1.87-4.17-4.17s1.87-4.17,4.17-4.17,4.17,1.87,4.17,4.17-1.87,4.17-4.17,4.17ZM62.37,63.7c-1.75,0-3.17,1.42-3.17,3.17s1.42,3.17,3.17,3.17,3.17-1.42,3.17-3.17-1.42-3.17-3.17-3.17Z"/>
          </g>
          <path class="cls-8" d="M62.56,63.78s-3.59.49-2.9,3.73c.69,3.24,5.7-4.71,2.9-3.73Z"/>
        </g>
        <g>
          <g>
            <path class="cls-5" d="M169.59,66.83c0,11.03-8.94,19.97-19.97,19.97s-19.97-8.94-19.97-19.97,8.94-19.97,19.97-19.97,19.97,8.94,19.97,19.97Z"/>
            <path class="cls-26" d="M149.62,87.3c-11.29,0-20.47-9.18-20.47-20.47s9.18-20.47,20.47-20.47,20.47,9.18,20.47,20.47-9.18,20.47-20.47,20.47ZM149.62,47.37c-10.73,0-19.47,8.73-19.47,19.47s8.73,19.47,19.47,19.47,19.47-8.73,19.47-19.47-8.73-19.47-19.47-19.47Z"/>
          </g>
          <g>
            <path class="cls-2" d="M165.32,66.91c0,8.62-6.99,15.62-15.62,15.62s-15.62-6.99-15.62-15.62,6.99-15.62,15.62-15.62,15.62,6.99,15.62,15.62Z"/>
            <path class="cls-26" d="M149.7,83.03c-8.89,0-16.12-7.23-16.12-16.12s7.23-16.12,16.12-16.12,16.12,7.23,16.12,16.12-7.23,16.12-16.12,16.12ZM149.7,51.79c-8.34,0-15.12,6.78-15.12,15.12s6.78,15.12,15.12,15.12,15.12-6.78,15.12-15.12-6.78-15.12-15.12-15.12Z"/>
          </g>
          <path class="cls-15" d="M152.57,70.8c-5.09,1.61-12.05,2.33-17.82.63,1.94,6.42,7.9,11.1,14.95,11.1,8.62,0,15.62-6.99,15.62-15.62,0-.89-.08-1.77-.22-2.62-3.84,2.67-8.05,5.1-12.53,6.51Z"/>
          <g class="cls-33">
            <path class="cls-31" d="M150.12,46.88c.34.07.69.13,1.05.2,22.99,4.2,19.38,32.49,4.05,36.4-13.02,3.31-21.3-5.16-23.5-7.8,3.26,6.59,10.05,11.12,17.9,11.12,11.03,0,19.97-8.94,19.97-19.97s-8.67-19.69-19.47-19.96Z"/>
          </g>
          <g>
            <ellipse class="cls-28" cx="149.62" cy="66.65" rx="12.4" ry="12.44"/>
            <path class="cls-26" d="M149.62,79.59c-7.12,0-12.9-5.8-12.9-12.94s5.79-12.94,12.9-12.94,12.9,5.8,12.9,12.94-5.79,12.94-12.9,12.94ZM149.62,54.71c-6.56,0-11.9,5.36-11.9,11.94s5.34,11.94,11.9,11.94,11.9-5.36,11.9-11.94-5.34-11.94-11.9-11.94Z"/>
          </g>
          <path class="cls-30" d="M161.36,66.83c0,6.48-5.26,11.74-11.74,11.74s-11.74-5.25-11.74-11.74,5.25-11.74,11.74-11.74,11.74,5.25,11.74,11.74Z"/>
          <g>
            <path class="cls-25" d="M149.6,57.2c-5.39,0-9.75,4.37-9.75,9.75s4.37,9.75,9.75,9.75,9.75-4.37,9.75-9.75-4.36-9.75-9.75-9.75ZM142.88,60.75l3.37,3.37c-.47.58-.85,1.38-.95,2.5h-4.84s.1-3.3,2.42-5.87ZM140.45,67.23h4.84c.1,1.12.48,1.92.95,2.5l-3.37,3.36c-2.33-2.56-2.42-5.87-2.42-5.87ZM149.11,75.98c-2.65-.25-4.49-1.21-5.76-2.4v-.02s3.18-3.52,3.18-3.52c1.12,1.1,2.59,1.19,2.59,1.19v4.75ZM149.11,62.62s-1.46.08-2.59,1.19l-3.17-3.52v-.02c1.27-1.19,3.11-2.15,5.76-2.4v4.75ZM158.7,66.61h-4.84c-.11-1.12-.48-1.92-.95-2.5l3.37-3.37c2.33,2.56,2.42,5.87,2.42,5.87ZM150.04,57.87c2.65.25,4.49,1.21,5.77,2.4v.02s-3.18,3.52-3.18,3.52c-1.12-1.1-2.59-1.19-2.59-1.19v-4.75ZM150.04,75.98v-4.75s1.46-.08,2.59-1.19l3.17,3.52v.02c-1.27,1.19-3.11,2.15-5.76,2.4ZM156.27,73.1l-3.37-3.36c.47-.58.85-1.38.95-2.5h4.84s-.1,3.3-2.42,5.87Z"/>
            <path class="cls-26" d="M149.6,77.21c-5.65,0-10.25-4.6-10.25-10.25s4.6-10.25,10.25-10.25,10.25,4.6,10.25,10.25-4.6,10.25-10.25,10.25ZM150.54,71.66v3.76c1.81-.25,3.34-.89,4.56-1.89l-2.52-2.79c-.75.58-1.55.82-2.04.92ZM144.05,73.53c1.22,1,2.75,1.63,4.56,1.89v-3.76c-.49-.1-1.29-.34-2.04-.92l-2.52,2.79ZM153.56,69.68l2.68,2.68c1.37-1.73,1.78-3.71,1.9-4.63h-3.85c-.12.74-.37,1.39-.74,1.95ZM141,67.73c.12.92.54,2.9,1.9,4.63l2.68-2.68c-.37-.56-.61-1.21-.73-1.95h-3.85ZM146.72,69.58c.06.02.11.06.15.1.97.95,2.25,1.04,2.27,1.04.2.01.37.14.44.32.07-.18.24-.3.44-.32.01,0,1.3-.09,2.27-1.04.04-.04.1-.08.15-.1.02-.06.05-.11.09-.16.47-.58.76-1.34.84-2.23,0-.1.05-.19.11-.26-.06-.07-.1-.16-.11-.26-.08-.9-.37-1.65-.84-2.23-.04-.05-.07-.11-.09-.17-.06-.02-.11-.06-.15-.1-.98-.96-2.25-1.04-2.27-1.04-.2-.01-.37-.14-.44-.32-.07.18-.24.3-.44.32-.01,0-1.3.09-2.27,1.04-.04.04-.1.08-.15.1-.02.06-.05.12-.09.17-.47.58-.76,1.33-.84,2.23,0,.1-.05.19-.11.26.06.07.1.16.11.26.08.9.37,1.65.84,2.23.04.05.07.11.09.16ZM154.3,66.11h3.85c-.12-.92-.54-2.9-1.9-4.63l-2.68,2.68c.37.56.61,1.21.73,1.95ZM141,66.11h3.85c.12-.74.37-1.39.73-1.95l-2.68-2.68c-1.37,1.72-1.78,3.71-1.9,4.63ZM144.05,60.31l2.51,2.79c.75-.58,1.55-.82,2.04-.92v-3.76c-1.81.25-3.34.89-4.56,1.89ZM150.54,62.19c.49.1,1.3.34,2.04.92l2.52-2.79c-1.22-1-2.75-1.63-4.56-1.89v3.76Z"/>
          </g>
          <path class="cls-7" d="M150.86,47.85c-1.48-.07-2.97.04-4.38.33-1.18.24-2.34.58-3.46,1.01-3.43,1.3-6.39,3.33-8.68,6.21-1.53,1.92-2.77,4.37-3.25,6.79,0,0-1.62,8.2,2.16,14.15,0,0,.54.88.69-.15.15-1.03-6.24-16.85,7.91-24.17,14.15-7.32,23.04,5.16,23.68,10.41,0,0,.15,1.33.64.74.21-.25-.1-1.36-.15-1.62-.24-1.26-.63-2.49-1.18-3.65-1.54-3.24-3.99-6.46-7.18-8.2-2.08-1.14-4.41-1.73-6.78-1.84Z"/>
          <g>
            <path class="cls-5" d="M153.05,66.87c0,2.03-1.64,3.67-3.67,3.67s-3.67-1.64-3.67-3.67,1.64-3.67,3.67-3.67,3.67,1.64,3.67,3.67Z"/>
            <path class="cls-26" d="M149.38,71.04c-2.3,0-4.17-1.87-4.17-4.17s1.87-4.17,4.17-4.17,4.17,1.87,4.17,4.17-1.87,4.17-4.17,4.17ZM149.38,63.7c-1.75,0-3.17,1.42-3.17,3.17s1.42,3.17,3.17,3.17,3.17-1.42,3.17-3.17-1.42-3.17-3.17-3.17Z"/>
          </g>
          <path class="cls-8" d="M149.57,63.78s-3.59.49-2.9,3.73c.69,3.24,5.7-4.71,2.9-3.73Z"/>
        </g>
        <g>
          <g>
            <path class="cls-9" d="M149.16,30.89s-23.99,6.81-24.13,9.97c-.14,3.16-.66,4.64,1.72,4.95,2.38.31,48.36-.76,57.86-5.77,9.5-5.01-28.22-10.66-35.44-9.14Z"/>
            <path class="cls-3" d="M128.75,46.36h0c-1.1,0-1.8-.02-2.06-.05-2.49-.32-2.38-1.95-2.23-4.19.03-.39.05-.81.08-1.27.15-3.26,18.79-8.8,24.49-10.43.86-.18,2.07-.27,3.63-.27,9.28,0,32.82,3.4,33.92,7.85.23.92-.36,1.76-1.74,2.49-9.09,4.8-49.1,5.88-56.09,5.88ZM152.65,31.14c-1.49,0-2.63.08-3.39.24-11.59,3.29-23.65,7.75-23.73,9.5-.02.47-.05.9-.08,1.29-.17,2.42-.15,2.94,1.36,3.13.1.01.5.04,1.94.04,9.86,0,47.31-1.38,55.62-5.77.64-.34,1.37-.84,1.24-1.36-.81-3.26-22.37-7.09-32.95-7.09Z"/>
          </g>
          <g class="cls-34">
            <path class="cls-9" d="M185.25,37.01c-1.18-.07-2.32.12-3.55.17-1.67.07-3.35,0-5.02-.04-3.2-.07-40.99,2.88-47.14,3.43-1.25.11-3.21.72-4.45.04-.03.08-.06.16-.06.24-.14,3.16-.66,4.64,1.72,4.95,2.38.31,48.36-.76,57.86-5.77,1.9-1,1.91-2.03.65-3.02Z"/>
          </g>
          <path class="cls-1" d="M133.48,36.85s15-4.81,17.71-4.99c8.67-.59,16.64,1.27,29.37,4.37,0,0-15.27-1.97-27.85-1.97-4.17,0-19.22,2.59-19.22,2.59Z"/>
        </g>
      </g>
    </g>
  </g>
</svg>